<svg xmlns="http://www.w3.org/2000/svg" xmlns:xlink="http://www.w3.org/1999/xlink" width="1152" zoomAndPan="magnify" viewBox="0 0 864 863.999991" height="1152" preserveAspectRatio="xMidYMid meet" version="1.0"><defs><g/></defs><rect x="-86.4" width="1036.8" fill="#ffffff" y="-86.399999" height="1036.79999" fill-opacity="1"/><rect x="-86.4" width="1036.8" fill="#00bf63" y="-86.399999" height="1036.79999" fill-opacity="1"/><g fill="#ffffff" fill-opacity="1"><g transform="translate(1.593754, 575.940704)"><g><path d="M 62.390625 119.375 L 24 58.78125 L 24 49.78125 C 38.789062 44.582031 50.285156 34.082031 58.484375 18.28125 C 66.679688 2.488281 71.78125 -16.300781 73.78125 -38.09375 C 75.78125 -59.882812 74.582031 -82.378906 70.1875 -105.578125 C 66.1875 -127.171875 66.1875 -148.363281 70.1875 -169.15625 C 74.1875 -189.957031 81.679688 -208.953125 92.671875 -226.140625 C 103.671875 -243.335938 117.769531 -257.132812 134.96875 -267.53125 C 152.164062 -277.9375 172.160156 -283.535156 194.953125 -284.328125 C 221.742188 -285.128906 245.632812 -279.226562 266.625 -266.625 C 287.625 -254.03125 304.320312 -236.238281 316.71875 -213.25 C 329.125 -190.257812 335.523438 -163.765625 335.921875 -133.765625 C 336.316406 -120.566406 337.515625 -108.46875 339.515625 -97.46875 C 341.515625 -86.476562 345.914062 -77.78125 352.71875 -71.375 C 359.519531 -64.976562 369.515625 -61.78125 382.703125 -61.78125 C 385.910156 -61.78125 388.710938 -58.378906 391.109375 -51.578125 C 393.503906 -44.785156 394.703125 -37.988281 394.703125 -31.1875 C 394.703125 -23.988281 393.503906 -16.988281 391.109375 -10.1875 C 388.710938 -3.394531 385.910156 0 382.703125 0 C 365.109375 0 350.3125 -4.394531 338.3125 -13.1875 C 326.320312 -21.988281 316.925781 -32.191406 310.125 -43.796875 C 299.726562 -28.597656 285.832031 -16.195312 268.4375 -6.59375 C 251.039062 3 230.742188 8.195312 207.546875 9 C 191.148438 9.394531 175.351562 7.09375 160.15625 2.09375 C 144.96875 -2.90625 131.375 -10.398438 119.375 -20.390625 C 122.570312 14.398438 119.769531 43.789062 110.96875 67.78125 C 102.175781 91.78125 85.984375 108.976562 62.390625 119.375 Z M 194.953125 -65.390625 C 208.953125 -65.785156 221.550781 -69.484375 232.75 -76.484375 C 243.945312 -83.484375 252.84375 -92.78125 259.4375 -104.375 C 266.039062 -115.96875 269.140625 -128.765625 268.734375 -142.765625 C 268.734375 -156.765625 265.132812 -169.5625 257.9375 -181.15625 C 250.738281 -192.75 241.335938 -201.84375 229.734375 -208.4375 C 218.140625 -215.039062 205.347656 -218.144531 191.359375 -217.75 C 177.359375 -217.75 164.660156 -214.046875 153.265625 -206.640625 C 141.867188 -199.242188 132.96875 -189.644531 126.5625 -177.84375 C 120.164062 -166.050781 116.96875 -153.160156 116.96875 -139.171875 C 117.375 -125.171875 121.175781 -112.570312 128.375 -101.375 C 135.570312 -90.175781 144.96875 -81.273438 156.5625 -74.671875 C 168.15625 -68.078125 180.953125 -64.984375 194.953125 -65.390625 Z M 194.953125 -65.390625 "/></g></g></g><g fill="#ffffff" fill-opacity="1"><g transform="translate(425.697582, 550.146501)"><g><path d="M 41.984375 -413.90625 C 30.390625 -413.90625 20.492188 -418.101562 12.296875 -426.5 C 4.097656 -434.894531 0 -444.691406 0 -455.890625 C 0 -467.492188 4.097656 -477.394531 12.296875 -485.59375 C 20.492188 -493.789062 30.390625 -497.890625 41.984375 -497.890625 C 53.585938 -497.890625 63.488281 -493.789062 71.6875 -485.59375 C 79.882812 -477.394531 83.984375 -467.492188 83.984375 -455.890625 C 83.984375 -444.691406 79.882812 -434.894531 71.6875 -426.5 C 63.488281 -418.101562 53.585938 -413.90625 41.984375 -413.90625 Z M 41.984375 -442.09375 C 47.585938 -442.09375 52.1875 -443.992188 55.78125 -447.796875 C 59.382812 -451.597656 61.1875 -456.097656 61.1875 -461.296875 C 61.1875 -466.890625 59.382812 -471.484375 55.78125 -475.078125 C 52.1875 -478.679688 47.585938 -480.484375 41.984375 -480.484375 C 36.785156 -480.484375 32.285156 -478.679688 28.484375 -475.078125 C 24.691406 -471.484375 22.796875 -466.890625 22.796875 -461.296875 C 22.796875 -456.097656 24.691406 -451.597656 28.484375 -447.796875 C 32.285156 -443.992188 36.785156 -442.09375 41.984375 -442.09375 Z M 41.984375 -442.09375 "/></g></g></g><g fill="#ffffff" fill-opacity="1"><g transform="translate(384.30689, 575.940704)"><g><path d="M 0 0 C -2.800781 0 -5.5 -3.394531 -8.09375 -10.1875 C -10.695312 -16.988281 -12 -23.988281 -12 -31.1875 C -12 -37.988281 -10.695312 -44.785156 -8.09375 -51.578125 C -5.5 -58.378906 -2.800781 -61.78125 0 -61.78125 C 10.800781 -61.78125 21.5 -63.679688 32.09375 -67.484375 C 42.6875 -71.285156 51.28125 -77.082031 57.875 -84.875 C 64.476562 -92.675781 67.179688 -102.375 65.984375 -113.96875 L 37.796875 -396.5 L 119.96875 -419.90625 L 118.171875 -140.96875 C 118.171875 -119.375 121.269531 -102.875 127.46875 -91.46875 C 133.664062 -80.070312 142.0625 -72.273438 152.65625 -68.078125 C 163.257812 -63.878906 174.5625 -61.78125 186.5625 -61.78125 C 189.757812 -61.78125 192.554688 -58.378906 194.953125 -51.578125 C 197.347656 -44.785156 198.546875 -37.988281 198.546875 -31.1875 C 198.546875 -23.988281 197.347656 -16.988281 194.953125 -10.1875 C 192.554688 -3.394531 189.757812 0 186.5625 0 C 172.957031 0 160.457031 -2.695312 149.0625 -8.09375 C 137.664062 -13.5 127.867188 -20 119.671875 -27.59375 C 111.472656 -35.1875 104.972656 -42.382812 100.171875 -49.1875 C 89.378906 -33.59375 75.484375 -21.492188 58.484375 -12.890625 C 41.492188 -4.296875 22 0 0 0 Z M 0 0 "/></g></g></g><g fill="#ffffff" fill-opacity="1"><g transform="translate(666.243043, 553.145837)"><g><path d="M 104.96875 102.578125 L 3 148.765625 L 0 142.765625 L 6 126.578125 L 104.96875 77.984375 Z M 104.96875 102.578125 "/></g></g></g><g fill="#ffffff" fill-opacity="1"><g transform="translate(570.864508, 575.940704)"><g><path d="M 0 0 C -2.800781 0 -5.5 -3.394531 -8.09375 -10.1875 C -10.695312 -16.988281 -12 -23.988281 -12 -31.1875 C -12 -37.988281 -10.695312 -44.785156 -8.09375 -51.578125 C -5.5 -58.378906 -2.800781 -61.78125 0 -61.78125 C 18 -61.78125 37.59375 -63.28125 58.78125 -66.28125 C 79.976562 -69.28125 100.578125 -73.378906 120.578125 -78.578125 C 103.773438 -81.378906 87.875 -87.476562 72.875 -96.875 C 57.882812 -106.269531 45.6875 -118.664062 36.28125 -134.0625 C 26.882812 -149.457031 22.1875 -166.957031 22.1875 -186.5625 C 22.1875 -207.351562 26.6875 -225.847656 35.6875 -242.046875 C 44.6875 -258.242188 56.984375 -271.039062 72.578125 -280.4375 C 88.179688 -289.832031 105.578125 -294.53125 124.765625 -294.53125 C 132.765625 -294.53125 142.265625 -293.726562 153.265625 -292.125 C 164.265625 -290.53125 174.660156 -288.234375 184.453125 -285.234375 C 194.253906 -282.234375 200.953125 -278.929688 204.546875 -275.328125 L 234.546875 -233.34375 L 231.546875 -233.34375 C 228.347656 -234.945312 221.050781 -236.347656 209.65625 -237.546875 C 198.257812 -238.742188 187.359375 -239.539062 176.953125 -239.9375 C 164.554688 -241.144531 151.457031 -239.945312 137.65625 -236.34375 C 123.863281 -232.75 112.269531 -226.25 102.875 -216.84375 C 93.476562 -207.445312 88.78125 -194.351562 88.78125 -177.5625 C 88.78125 -163.957031 93.078125 -152.253906 101.671875 -142.453125 C 110.273438 -132.660156 120.972656 -124.863281 133.765625 -119.0625 C 146.566406 -113.269531 159.460938 -109.875 172.453125 -108.875 C 185.453125 -107.875 196.550781 -109.375 205.75 -113.375 C 216.945312 -119.375 227.242188 -125.671875 236.640625 -132.265625 C 246.035156 -138.867188 254.332031 -145.769531 261.53125 -152.96875 L 267.53125 -149.96875 C 267.132812 -148.363281 266.132812 -143.660156 264.53125 -135.859375 C 262.9375 -128.066406 260.9375 -119.171875 258.53125 -109.171875 C 256.132812 -99.171875 253.4375 -89.472656 250.4375 -80.078125 C 247.4375 -70.679688 244.140625 -63.1875 240.546875 -57.59375 C 234.148438 -47.988281 222.75 -39.585938 206.34375 -32.390625 C 189.945312 -25.191406 170.550781 -19.191406 148.15625 -14.390625 C 125.769531 -9.597656 101.78125 -6 76.1875 -3.59375 C 50.59375 -1.195312 25.195312 0 0 0 Z M 0 0 "/></g></g></g></svg>